<?xml version="1.0" standalone="no"?>
<!DOCTYPE svg PUBLIC "-//W3C//DTD SVG 20010904//EN"
 "http://www.w3.org/TR/2001/REC-SVG-20010904/DTD/svg10.dtd">
<svg version="1.0" xmlns="http://www.w3.org/2000/svg"
 width="300.000000pt" height="313.000000pt" viewBox="0 0 300.000000 313.000000"
 preserveAspectRatio="xMidYMid meet">
<metadata>
Created by potrace 1.10, written by Peter Selinger 2001-2011
</metadata>
<g transform="translate(0.000000,313.000000) scale(0.100000,-0.100000)"
fill="#000000" stroke="none">
<path d="M226 2979 c-35 -27 -36 -86 -3 -117 22 -20 33 -22 164 -22 l141 0 21
-87 c11 -49 115 -484 230 -968 219 -917 219 -915 268 -915 8 0 13 -3 11 -7
-43 -84 -51 -113 -51 -179 0 -90 33 -165 100 -224 46 -40 120 -70 173 -70 85
0 187 62 234 143 57 97 51 248 -12 320 -14 16 0 17 287 17 167 0 301 -3 299
-7 -40 -78 -50 -110 -50 -166 -1 -124 54 -219 155 -271 183 -94 390 44 391
260 0 60 -4 81 -31 135 -28 56 -30 66 -17 80 24 27 18 85 -12 108 -26 21 -34
21 -719 21 l-693 0 -22 97 c-12 54 -25 104 -27 110 -4 10 144 13 684 15 l689
3 42 28 c23 15 50 44 61 65 17 35 261 1137 261 1182 0 33 -17 57 -47 68 -35
12 -67 0 -86 -30 -8 -13 -67 -273 -132 -578 -65 -305 -122 -561 -128 -567 -7
-10 -159 -13 -697 -13 l-688 0 -11 48 c-5 26 -69 292 -141 592 -71 300 -130
549 -130 555 0 7 252 9 751 7 l750 -2 30 29 c34 35 37 68 8 105 l-20 26 -781
2 -781 3 -22 95 c-33 133 -26 130 -245 130 -164 0 -179 -2 -204 -21z m377 -34
c8 -8 23 -47 32 -87 13 -50 27 -81 46 -100 l27 -28 761 0 c677 0 761 -2 775
-16 12 -11 13 -20 6 -34 -10 -19 -34 -20 -754 -22 l-744 -3 -27 -25 c-21 -19
-24 -30 -19 -55 3 -16 67 -284 141 -595 104 -440 139 -570 155 -587 l21 -23
684 0 c450 0 691 4 704 10 30 17 45 56 78 210 126 596 201 931 211 949 14 27
38 27 51 -1 8 -18 -16 -143 -110 -581 -67 -306 -127 -570 -136 -586 -8 -16
-29 -40 -47 -53 l-33 -23 -683 -5 c-662 -5 -684 -6 -698 -24 -18 -26 -18 -39
6 -143 13 -54 29 -96 42 -110 l21 -23 679 0 c449 0 686 -4 699 -10 22 -12 24
-30 7 -76 -10 -28 -8 -40 15 -92 31 -68 37 -169 13 -226 -20 -48 -75 -107
-121 -127 -52 -24 -138 -24 -191 0 -49 23 -107 88 -122 140 -18 60 -14 143 9
205 l22 57 -23 24 -23 25 -284 0 c-270 0 -284 -1 -303 -20 -25 -25 -25 -27 0
-90 24 -60 27 -165 6 -214 -65 -156 -261 -199 -378 -82 -69 69 -89 192 -48
297 23 58 19 82 -15 105 -13 9 -29 30 -34 47 -6 18 -110 448 -231 957 -200
839 -222 927 -246 948 -23 20 -35 22 -145 22 -126 0 -159 8 -159 40 0 33 30
39 192 40 124 0 160 -3 171 -15z"/>
<path d="M1208 840 c-121 -64 -121 -240 0 -308 22 -12 52 -22 68 -22 47 0 107
36 137 82 92 142 -59 325 -205 248z m146 -50 c66 -59 69 -145 6 -205 -26 -25
-40 -30 -80 -30 -40 0 -54 5 -80 30 -45 43 -57 93 -36 149 33 86 125 113 190
56z"/>
<path d="M2242 843 c-50 -24 -84 -75 -90 -133 -6 -67 2 -94 44 -140 63 -70
143 -77 210 -18 48 42 64 77 64 141 0 122 -122 202 -228 150z m127 -37 c41
-22 65 -64 65 -118 1 -53 -22 -92 -73 -122 -62 -36 -151 8 -172 86 -29 111 81
205 180 154z"/>
</g>
</svg>
