<?xml version="1.0" standalone="no"?>
<!DOCTYPE svg PUBLIC "-//W3C//DTD SVG 20010904//EN"
 "http://www.w3.org/TR/2001/REC-SVG-20010904/DTD/svg10.dtd">
<svg version="1.0" xmlns="http://www.w3.org/2000/svg"
 width="300.000000pt" height="169.000000pt" viewBox="0 0 300.000000 169.000000"
 preserveAspectRatio="xMidYMid meet">
<metadata>
Created by potrace 1.10, written by Peter Selinger 2001-2011
</metadata>
<g transform="translate(0.000000,169.000000) scale(0.100000,-0.100000)"
fill="#000000" stroke="none">
<path d="M200 1657 c0 -33 -2 -34 -55 -46 -53 -12 -55 -13 -55 -46 0 -44 18
-55 22 -13 3 29 7 33 56 46 47 13 52 17 52 44 0 20 6 31 23 38 20 8 19 9 -10
9 -31 1 -33 -1 -33 -32z"/>
<path d="M400 1677 c0 -7 14 -18 30 -24 25 -9 30 -9 30 3 0 8 -9 14 -20 14
-11 0 -20 5 -20 10 0 6 -4 10 -10 10 -5 0 -10 -6 -10 -13z"/>
<path d="M494 1682 c-7 -4 -8 -18 -2 -39 11 -42 33 -44 25 -4 -5 26 -2 31 21
40 l27 9 -30 1 c-16 0 -35 -3 -41 -7z"/>
<path d="M670 1682 c0 -5 -18 -17 -40 -27 -40 -18 -45 -29 -34 -72 8 -31 24
-19 24 18 0 16 5 29 11 29 6 0 24 10 41 21 25 18 34 20 55 10 29 -14 44 -7 16
7 -29 15 -73 23 -73 14z"/>
<path d="M775 1660 c6 -27 3 -31 -38 -51 -44 -21 -45 -23 -41 -63 2 -23 2 -36
-2 -29 -4 8 -19 6 -56 -10 -50 -20 -50 -21 -45 -59 l5 -38 -54 -17 -55 -17 3
-40 c3 -43 28 -64 28 -24 0 32 9 42 55 60 36 14 40 19 43 56 3 38 6 41 57 63
47 20 55 28 55 51 0 19 9 32 35 48 30 19 35 27 35 61 0 29 -4 39 -16 39 -12 0
-14 -7 -9 -30z"/>
<path d="M906 1674 c-26 -14 -28 -19 -22 -57 6 -41 5 -43 -34 -65 -39 -22 -40
-24 -34 -65 5 -34 4 -40 -6 -30 -10 9 -24 6 -62 -13 -39 -20 -48 -29 -44 -44
4 -11 8 -28 11 -38 4 -15 -5 -22 -51 -36 -55 -17 -56 -19 -50 -48 3 -17 6 -41
6 -54 0 -39 15 -27 28 22 10 37 18 48 46 59 33 14 46 36 46 80 0 15 15 28 55
48 47 23 55 31 55 54 0 21 9 34 33 49 30 19 32 25 29 62 -3 36 -1 42 27 58 17
10 31 22 31 26 0 13 -33 8 -64 -8z"/>
<path d="M1020 1681 c8 -6 23 -11 33 -11 28 0 20 -18 -22 -45 -32 -21 -37 -30
-33 -52 3 -18 1 -24 -7 -19 -6 4 -11 14 -11 22 0 22 -43 36 -51 15 -5 -12 6
-22 42 -38 27 -13 49 -25 49 -27 0 -2 -20 -16 -44 -30 -41 -24 -43 -28 -37
-57 9 -43 30 -49 37 -10 4 21 18 37 42 51 26 16 32 24 23 30 -21 13 -5 77 25
96 17 12 23 22 18 36 -5 16 -3 18 13 9 14 -8 216 -90 356 -145 15 -6 27 -14
27 -18 0 -4 -17 -21 -39 -38 -28 -23 -37 -37 -34 -51 3 -10 9 -19 13 -19 11 0
40 35 40 49 0 7 8 11 18 9 27 -5 21 -21 -26 -72 -42 -46 -44 -47 -63 -30 -18
16 -18 26 -2 70 2 6 -14 17 -37 24 -46 15 -51 33 -15 56 20 13 23 20 14 35
-13 25 -18 24 -57 -10 -30 -26 -32 -32 -25 -61 7 -26 17 -36 50 -49 23 -9 44
-19 47 -22 4 -3 -43 -46 -104 -94 -62 -49 -110 -95 -109 -104 1 -19 17 -59 20
-48 5 20 7 28 8 36 1 9 74 73 162 143 18 14 37 24 41 22 24 -15 0 -49 -89
-125 -53 -46 -108 -95 -122 -108 -15 -15 -26 -20 -29 -12 -2 6 -10 18 -18 25
-8 8 -14 19 -14 24 0 5 -26 -4 -58 -21 l-58 -30 9 -53 c6 -28 7 -60 3 -70 -6
-16 -8 -16 -22 4 l-15 22 -69 -47 c-59 -39 -70 -50 -70 -74 0 -19 -5 -29 -15
-29 -11 0 -162 86 -203 115 -1 1 2 14 7 29 12 29 4 33 -24 12 -29 -21 -13 -41
86 -106 107 -71 133 -74 205 -29 190 120 552 427 627 533 l21 29 -22 15 c-12
8 -22 23 -22 34 0 16 3 17 21 8 11 -6 39 -17 62 -25 62 -20 128 -44 162 -59
17 -7 86 -35 155 -61 436 -166 499 -194 492 -215 -5 -13 -3 -13 11 -1 17 14
24 57 8 47 -10 -7 -586 211 -1036 392 -283 114 -381 149 -345 123z m104 -593
c6 -24 -16 -47 -77 -83 l-28 -17 5 29 c2 15 5 35 5 44 1 16 53 48 77 49 7 0
14 -10 18 -22z m-179 -154 c-31 -26 -97 -64 -80 -46 19 21 90 71 100 71 6 0
-3 -11 -20 -25z"/>
<path d="M2005 1683 c79 -17 770 -246 784 -259 12 -11 8 -24 -29 -86 -43 -73
-306 -496 -385 -618 -23 -36 -117 -186 -209 -335 -93 -148 -183 -294 -202
-322 -38 -59 -39 -63 -20 -63 7 0 75 100 151 223 76 122 148 238 160 257 56
85 328 525 386 622 35 58 65 106 66 105 1 -1 -3 -23 -7 -49 -7 -34 -70 -146
-251 -440 -133 -216 -286 -465 -340 -553 -54 -88 -96 -162 -93 -164 8 -9 30
22 129 184 107 175 207 335 325 520 42 66 88 140 103 165 15 25 48 77 72 115
51 80 48 74 68 140 9 28 16 42 16 33 1 -12 9 -18 25 -18 13 0 43 -7 66 -15 58
-21 66 -19 96 14 39 44 52 74 43 99 -8 21 -75 62 -103 62 -8 0 -19 7 -24 16
-8 14 -18 3 -52 -55 -23 -40 -40 -75 -37 -77 7 -8 59 58 69 88 l9 26 57 -25
c31 -13 61 -28 66 -33 8 -8 -49 -120 -61 -120 -12 0 -138 52 -147 60 -13 12
12 96 45 150 42 70 43 83 13 113 -15 15 -34 27 -44 27 -9 0 -19 3 -23 6 -10
10 -144 54 -261 84 -59 16 -111 32 -114 35 -11 11 5 12 58 5 30 -4 75 -6 100
-5 25 1 62 3 83 3 29 2 37 6 37 21 0 11 9 23 20 26 11 3 25 15 30 26 12 21 1
26 -18 7 -10 -10 -15 -10 -22 2 -8 13 -10 12 -10 -2 0 -20 -39 -60 -51 -53 -4
3 -19 0 -34 -7 -18 -8 -29 -8 -37 0 -7 7 -19 7 -33 2 -13 -5 -26 -6 -29 -3 -6
6 -51 12 -103 14 -20 1 -35 19 -37 43 -1 5 -7 11 -15 14 -9 3 -11 -1 -7 -14
12 -38 -6 -47 -68 -33 -57 12 -60 28 -6 29 14 0 32 5 40 10 10 6 -31 9 -125 9
-77 -1 -131 -3 -120 -6z"/>
<path d="M2932 1680 c26 -5 52 -11 57 -15 6 -3 11 1 11 9 0 13 -12 16 -57 15
l-58 -1 47 -8z"/>
<path d="M55 1656 c-28 -6 -50 -17 -49 -24 1 -6 2 -23 2 -37 3 -36 20 -31 24
7 3 28 8 33 41 41 20 5 37 13 37 18 0 5 -1 9 -2 8 -2 0 -25 -6 -53 -13z"/>
<path d="M318 1653 c-33 -14 -37 -19 -35 -46 2 -28 -1 -31 -51 -45 -52 -15
-53 -15 -50 -50 4 -46 26 -54 30 -11 3 30 8 35 51 48 43 13 47 17 47 46 0 28
5 33 40 45 41 13 54 31 23 29 -10 -1 -35 -8 -55 -16z"/>
<path d="M820 1639 c0 -11 29 -38 41 -39 3 0 4 11 1 25 -4 25 -42 37 -42 14z"/>
<path d="M425 1609 c-49 -18 -51 -20 -47 -51 3 -32 2 -33 -50 -48 -52 -15 -53
-16 -50 -50 6 -51 16 -60 22 -20 4 25 10 35 22 34 10 -1 16 2 13 6 -3 4 7 11
23 15 39 10 51 23 46 50 -6 32 49 64 78 46 11 -7 18 -7 18 -1 0 5 -4 10 -9 10
-5 0 -11 6 -13 14 -2 12 -12 11 -53 -5z"/>
<path d="M1752 1568 c-34 -29 -58 -56 -54 -60 12 -12 626 -238 653 -241 16 -1
35 15 72 61 27 35 48 64 46 66 -2 1 -143 50 -314 109 -170 58 -317 108 -325
111 -9 4 -39 -14 -78 -46z m173 -10 c33 -12 63 -24 67 -27 5 -4 -12 -26 -36
-50 l-44 -43 -73 26 c-41 15 -81 29 -89 32 -11 4 -2 17 35 50 31 27 56 41 65
38 8 -3 42 -15 75 -26z m181 -63 c38 -14 78 -29 89 -34 11 -4 66 -23 122 -41
l101 -34 -36 -48 c-21 -26 -43 -47 -50 -48 -14 0 -176 55 -194 66 -5 4 7 24
28 45 21 21 35 41 32 44 -3 3 -22 -13 -42 -36 l-36 -43 -73 23 c-39 13 -83 28
-96 33 l-24 9 43 44 c24 25 49 45 56 45 6 0 43 -11 80 -25z"/>
<path d="M1770 1511 c0 -12 39 -25 48 -16 7 7 -17 25 -35 25 -7 0 -13 -4 -13
-9z"/>
<path d="M1950 1441 c0 -11 40 -22 53 -14 5 3 3 9 -4 14 -18 11 -49 11 -49 0z"/>
<path d="M2160 1373 c0 -6 11 -15 25 -21 21 -10 25 -9 25 3 0 8 -4 15 -9 15
-5 0 -16 3 -25 6 -9 3 -16 2 -16 -3z"/>
<path d="M1158 1572 c-31 -23 -35 -31 -30 -57 8 -44 25 -50 37 -13 6 17 21 39
33 48 13 11 20 24 16 34 -8 21 -12 20 -56 -12z"/>
<path d="M630 1575 c0 -8 9 -19 20 -25 15 -8 20 -8 20 3 0 14 -19 37 -32 37
-4 0 -8 -7 -8 -15z"/>
<path d="M523 1559 c-51 -20 -51 -20 -42 -51 5 -18 8 -32 6 -33 -1 -1 -26 -10
-55 -20 l-53 -17 3 -41 c4 -51 28 -63 28 -14 0 34 3 36 50 52 48 16 50 18 50
54 0 33 4 38 35 50 19 7 35 19 35 27 0 8 -1 14 -2 13 -2 0 -26 -9 -55 -20z"/>
<path d="M1057 1531 c3 -11 12 -22 21 -25 10 -3 23 -9 30 -12 11 -5 11 -2 0
17 -23 41 -60 56 -51 20z"/>
<path d="M745 1523 c-3 -9 0 -20 7 -25 20 -12 28 -9 28 11 0 24 -26 35 -35 14z"/>
<path d="M1180 1491 c0 -8 43 -51 51 -51 3 0 5 9 6 19 1 13 -8 23 -28 30 -16
5 -29 6 -29 2z"/>
<path d="M866 1465 c-3 -9 4 -19 15 -26 24 -12 32 -8 23 14 -8 22 -31 29 -38
12z"/>
<path d="M1112 1434 c-31 -19 -42 -32 -42 -50 0 -33 18 -30 69 14 35 31 41 40
29 49 -11 9 -23 7 -56 -13z"/>
<path d="M996 1406 c3 -7 16 -18 28 -24 20 -9 23 -8 22 6 -1 17 -19 30 -43 31
-7 1 -10 -5 -7 -13z"/>
<path d="M877 1383 c-41 -20 -48 -28 -43 -46 3 -12 6 -27 6 -34 0 -12 146 -99
215 -127 31 -13 40 -14 47 -4 4 7 7 16 5 19 -1 4 -51 32 -111 63 -82 42 -112
53 -118 44 -5 -9 -8 -3 -8 14 0 21 9 34 35 50 19 13 35 26 35 30 0 17 -18 14
-63 -9z"/>
<path d="M1672 1357 c-24 -25 -32 -42 -32 -70 0 -38 -19 -53 -21 -17 -1 11 -2
25 -3 30 0 6 -19 21 -42 34 -41 23 -41 23 -53 3 -15 -22 -9 -29 47 -49 17 -7
32 -15 32 -19 0 -4 -18 -22 -40 -39 -36 -28 -40 -36 -40 -75 0 -37 3 -44 19
-42 12 1 22 11 26 26 4 14 27 44 51 68 l45 42 42 -19 c23 -10 51 -22 62 -25
18 -6 16 -11 -25 -48 -43 -40 -45 -45 -42 -89 2 -36 6 -46 18 -41 7 3 14 12
14 20 0 18 86 111 110 118 10 3 21 18 25 33 3 15 18 39 31 53 21 22 23 27 10
32 -9 4 -16 13 -16 22 0 22 -6 19 -44 -22 -27 -30 -33 -44 -30 -68 5 -29 -9
-65 -21 -54 -3 4 -6 22 -7 42 -1 29 -7 38 -37 56 -34 19 -38 19 -49 3 -11 -15
-12 -13 -7 13 4 17 16 38 28 48 15 13 18 20 10 24 -7 2 -13 13 -13 24 0 27
-11 24 -48 -14z"/>
<path d="M0 1348 c0 -19 396 -278 426 -278 13 0 61 18 105 40 l81 41 46 -27
c26 -15 64 -40 85 -56 28 -23 37 -26 37 -14 0 9 -7 16 -16 16 -8 0 -12 4 -9
10 4 6 -1 7 -11 3 -10 -4 -15 -2 -11 3 3 5 -25 28 -62 51 -44 27 -74 54 -86
77 -22 41 -43 45 -104 20 l-40 -16 6 -70 c6 -67 5 -71 -13 -66 -10 3 -109 64
-219 137 -110 73 -203 135 -207 137 -5 3 -8 -1 -8 -8z m580 -155 l21 -27 -66
-34 c-37 -18 -69 -32 -71 -29 -9 8 15 100 27 108 28 18 67 9 89 -18z"/>
<path d="M1760 1340 c0 -14 38 -32 58 -27 13 4 12 5 -4 6 -12 0 -24 8 -28 16
-6 17 -26 21 -26 5z"/>
<path d="M766 1271 c-3 -5 8 -14 26 -20 43 -15 47 -14 18 9 -28 22 -36 24 -44
11z"/>
<path d="M2031 1210 c-28 -35 -34 -51 -35 -94 -1 -37 -5 -50 -15 -48 -7 1 -21
-3 -30 -10 -13 -11 -13 -9 1 8 11 12 17 35 16 57 -1 32 -6 39 -41 56 -38 19
-41 19 -53 3 -11 -14 -10 -19 4 -30 9 -7 29 -16 45 -19 43 -9 43 -22 -2 -67
-39 -40 -41 -45 -41 -101 1 -52 2 -58 14 -42 7 9 18 17 25 17 6 0 11 5 11 11
0 5 -4 7 -10 4 -18 -11 -10 15 16 55 29 44 39 50 31 20 -3 -13 10 -5 39 25 24
25 44 48 44 51 0 4 14 26 30 51 29 42 29 45 11 50 -11 3 -21 14 -23 25 -3 17
-8 14 -37 -22z"/>
<path d="M1398 1216 c-16 -22 -15 -23 23 -39 47 -21 46 -20 52 -3 4 9 -7 24
-26 39 l-32 24 -17 -21z"/>
<path d="M720 1227 c0 -7 110 -80 142 -94 35 -15 37 -37 3 -31 -30 6 -32 2 -4
-12 17 -9 23 -8 34 7 7 10 11 21 9 24 -2 4 -33 23 -69 43 -36 20 -77 43 -90
52 -14 9 -25 14 -25 11z"/>
<path d="M2237 1135 c-32 -50 -52 -56 -115 -30 -34 15 -38 15 -49 -2 -19 -26
-11 -36 40 -53 41 -13 47 -19 52 -51 6 -32 1 -44 -29 -86 -19 -27 -40 -61 -45
-76 -6 -15 -17 -27 -26 -27 -8 0 -15 -6 -15 -14 0 -8 -3 -16 -8 -18 -13 -6
-69 -83 -76 -105 -4 -13 -13 -23 -21 -23 -7 0 -15 -7 -19 -15 -5 -15 -90 -125
-187 -244 -25 -31 -51 -67 -58 -79 -15 -28 -15 -28 -124 42 l-87 56 17 33 c10
17 18 39 19 47 1 8 2 26 3 38 0 14 6 22 13 20 6 -2 24 10 40 27 23 27 26 38
21 68 -3 21 -8 37 -10 37 -3 0 -27 -17 -54 -37 -52 -41 -50 -37 -54 -167 -1
-22 -7 -42 -13 -44 -13 -4 -181 98 -182 110 0 4 14 39 31 77 24 54 40 76 72
97 36 24 39 28 24 39 -9 7 -17 17 -17 24 0 6 -6 11 -12 11 -21 -1 -109 -70
-103 -80 4 -6 3 -42 -1 -81 -6 -60 -9 -70 -24 -66 -10 2 -88 51 -174 107 -121
79 -156 107 -151 119 4 9 10 23 13 31 5 13 2 13 -18 -1 -53 -35 -41 -49 117
-151 81 -52 249 -160 373 -240 124 -79 233 -147 243 -151 10 -4 27 -2 37 3 57
30 620 781 620 826 0 7 -6 17 -14 21 -8 4 -16 18 -18 31 -3 20 -6 17 -31 -23z
m33 -11 c0 -10 -72 -144 -80 -149 -9 -5 -19 73 -13 92 3 6 10 10 17 7 6 -2 22
9 34 26 20 27 42 40 42 24z"/>
<path d="M2125 1150 c33 -22 55 -26 55 -9 0 6 -6 9 -14 6 -8 -3 -20 1 -26 9
-7 8 -20 14 -29 14 -10 0 -5 -7 14 -20z"/>
<path d="M1830 1135 c-10 -12 -9 -16 3 -21 18 -6 37 2 37 16 0 5 -7 6 -17 3
-11 -4 -14 -3 -9 5 10 17 1 15 -14 -3z"/>
<path d="M1431 1108 c-37 -27 -41 -34 -41 -74 0 -36 3 -44 19 -44 11 0 23 12
31 30 7 17 26 41 43 54 l30 23 -21 21 -20 20 -41 -30z"/>
<path d="M1588 1119 c-15 -16 -14 -18 14 -30 25 -10 31 -10 39 2 13 21 11 25
-13 36 -18 7 -27 5 -40 -8z"/>
<path d="M1280 1108 c0 -9 -8 -19 -17 -22 -13 -5 -9 -11 20 -26 46 -25 55 -25
33 -1 -11 12 -13 20 -6 23 7 2 3 11 -9 22 -18 16 -21 17 -21 4z"/>
<path d="M1788 1093 c6 -2 12 -12 12 -20 0 -9 6 -13 15 -10 8 4 17 2 20 -3 4
-6 16 -10 28 -10 17 0 19 2 7 9 -8 6 -17 8 -21 6 -3 -3 -15 5 -27 15 -12 11
-27 20 -34 19 -10 0 -10 -2 0 -6z"/>
<path d="M2844 1058 c4 -28 17 -39 32 -27 22 18 17 39 -10 39 -14 0 -23 -5
-22 -12z"/>
<path d="M850 1035 c-52 -22 -55 -26 -61 -64 -3 -23 -1 -41 3 -41 5 0 35 18
67 39 31 22 68 41 82 43 l24 3 -30 22 -30 21 -55 -23z"/>
<path d="M1613 1024 c-40 -33 -43 -39 -43 -85 0 -27 3 -49 8 -49 15 0 30 16
46 48 9 18 25 38 36 45 20 12 27 37 11 37 -5 0 -11 9 -13 20 -3 17 -7 16 -45
-16z"/>
<path d="M1773 1053 c4 -6 0 -16 -10 -21 -14 -8 -12 -12 15 -26 40 -21 48 -20
48 4 0 11 -5 20 -10 20 -5 0 -18 8 -29 18 -11 9 -17 12 -14 5z"/>
<path d="M678 1027 c-4 -21 -2 -22 18 -13 17 8 20 14 12 23 -16 19 -25 16 -30
-10z"/>
<path d="M1160 1023 c1 -16 47 -41 59 -33 9 5 5 9 -13 14 -15 4 -24 11 -21 16
3 6 -1 10 -9 10 -9 0 -16 -3 -16 -7z"/>
<path d="M1295 990 c-44 -26 -51 -34 -56 -70 -4 -33 -2 -43 12 -51 26 -13 28
-12 44 29 9 21 29 46 45 56 29 17 40 36 21 36 -5 0 -11 7 -13 15 -2 11 -14 8
-53 -15z"/>
<path d="M1712 993 c5 -24 25 -27 31 -3 4 15 0 20 -15 20 -13 0 -18 -6 -16
-17z"/>
<path d="M1479 991 c11 -7 9 -10 -10 -13 l-23 -3 27 -12 c25 -12 27 -11 27 12
0 17 -5 25 -17 25 -15 0 -15 -2 -4 -9z"/>
<path d="M2112 961 c-17 -21 -28 -41 -25 -45 3 -3 19 12 36 35 38 52 30 61
-11 10z"/>
<path d="M1415 970 c6 -10 4 -12 -8 -7 -9 3 -19 2 -22 -3 -7 -11 15 -18 38
-12 20 5 18 23 -3 30 -8 3 -10 0 -5 -8z"/>
<path d="M1951 954 c-9 -20 -7 -26 12 -39 12 -8 25 -15 29 -15 3 0 19 -5 33
-10 l26 -10 -44 -51 c-28 -32 -43 -58 -39 -67 5 -13 6 -14 11 -1 3 8 19 31 36
52 25 31 31 34 36 19 4 -9 6 9 5 42 l-3 58 -45 22 -46 22 -11 -22z"/>
<path d="M1073 953 c-23 -9 -15 -35 10 -31 12 2 22 9 22 17 0 16 -14 22 -32
14z"/>
<path d="M1798 923 c-32 -33 -37 -45 -40 -96 -1 -31 0 -57 5 -57 4 0 7 5 7 10
0 6 7 10 16 10 8 0 12 5 9 11 -10 14 4 61 15 54 5 -3 18 3 29 14 15 15 19 28
14 55 -3 20 -9 36 -12 36 -4 0 -23 -17 -43 -37z"/>
<path d="M0 928 c0 -13 60 -70 125 -120 17 -12 37 -29 45 -37 14 -14 285 -230
343 -275 16 -11 51 -41 78 -66 27 -25 53 -45 57 -45 4 0 17 -9 29 -20 25 -23
34 -30 88 -70 22 -16 86 -67 142 -112 56 -46 106 -83 112 -83 6 0 11 -4 11
-10 0 -5 5 -10 11 -10 6 0 31 -18 56 -40 25 -22 55 -40 67 -40 26 1 40 -11
-279 238 -186 144 -661 522 -862 685 -17 14 -23 15 -23 5z"/>
<path d="M1477 897 c-40 -28 -46 -37 -47 -67 0 -19 -3 -45 -6 -56 -5 -18 -2
-21 18 -17 17 3 29 16 37 39 7 18 25 41 42 51 33 20 34 22 16 56 l-13 26 -47
-32z"/>
<path d="M1654 865 c27 -21 53 -20 36 0 -7 8 -22 15 -34 15 -21 -1 -21 -1 -2
-15z"/>
<path d="M1525 831 c-3 -6 -1 -11 4 -11 6 0 11 -6 11 -13 0 -15 67 -39 75 -27
3 4 -3 11 -13 15 -9 3 -18 5 -19 3 -1 -2 -13 7 -26 20 -16 15 -27 20 -32 13z"/>
<path d="M1667 787 c-46 -41 -47 -43 -47 -99 l0 -57 58 61 c31 33 55 66 53 72
-2 6 -6 23 -10 38 l-6 26 -48 -41z"/>
<path d="M1836 823 c-3 -3 0 -13 7 -21 9 -13 9 -14 0 -8 -7 4 -18 4 -24 0 -7
-4 3 -16 27 -30 52 -32 74 -31 74 1 0 16 -6 25 -15 25 -8 0 -15 4 -15 8 0 11
-46 32 -54 25z"/>
<path d="M1813 588 c-59 -68 -111 -124 -115 -126 -5 -2 -8 -20 -8 -40 l0 -36
18 35 c17 33 66 95 171 217 38 44 47 50 53 35 6 -16 7 -15 7 4 1 12 -3 24 -8
28 -5 3 -58 -50 -118 -117z"/>
<path d="M1365 690 c-6 -10 53 -45 62 -36 6 6 -37 45 -49 46 -4 0 -9 -4 -13
-10z"/>
</g>
</svg>
